<mxfile host="app.diagrams.net" agent="Mozilla/5.0 (Windows NT 10.0; Win64; x64) AppleWebKit/537.36 (KHTML, like Gecko) Chrome/127.0.0.0 Safari/537.36" version="24.7.6">
  <diagram name="Página-1" id="ExgSIb2Tu4yiRh2_aCCl">
    <mxGraphModel grid="1" page="1" gridSize="10" guides="1" tooltips="1" connect="1" arrows="1" fold="1" pageScale="1" pageWidth="827" pageHeight="1169" math="0" shadow="0">
      <root>
        <mxCell id="0" />
        <mxCell id="1" parent="0" />
        <mxCell id="xvWXu5NEtejraE3-hPxB-1" value="&lt;p style=&quot;margin:0px;margin-top:4px;text-align:center;&quot;&gt;&lt;b&gt;SISTEMAS&lt;/b&gt;&lt;/p&gt;&lt;hr size=&quot;1&quot; style=&quot;border-style:solid;&quot;&gt;&lt;p style=&quot;margin:0px;margin-left:4px;&quot;&gt;+ Codigo&amp;nbsp;&lt;/p&gt;&lt;p style=&quot;margin:0px;margin-left:4px;&quot;&gt;+ Nome&amp;nbsp;&lt;/p&gt;&lt;p style=&quot;margin:0px;margin-left:4px;&quot;&gt;+ Codigo Do Tipo&lt;/p&gt;" style="verticalAlign=top;align=left;overflow=fill;html=1;whiteSpace=wrap;" vertex="1" parent="1">
          <mxGeometry x="10" y="100" width="160" height="90" as="geometry" />
        </mxCell>
        <mxCell id="xvWXu5NEtejraE3-hPxB-2" value="&lt;p style=&quot;margin:0px;margin-top:4px;text-align:center;&quot;&gt;&lt;b&gt;CLIENTE&lt;/b&gt;&lt;/p&gt;&lt;hr size=&quot;1&quot; style=&quot;border-style:solid;&quot;&gt;&lt;p style=&quot;margin:0px;margin-left:4px;&quot;&gt;+ codigo_cliente&lt;/p&gt;&lt;p style=&quot;margin:0px;margin-left:4px;&quot;&gt;&lt;br&gt;&lt;/p&gt;&lt;p style=&quot;margin:0px;margin-left:4px;&quot;&gt;+nome_cliente&lt;/p&gt;&lt;p style=&quot;margin:0px;margin-left:4px;&quot;&gt;&lt;br&gt;&lt;/p&gt;&lt;p style=&quot;margin:0px;margin-left:4px;&quot;&gt;+telefone_cliente&lt;/p&gt;&lt;p style=&quot;margin:0px;margin-left:4px;&quot;&gt;&lt;br&gt;&lt;/p&gt;&lt;p style=&quot;margin:0px;margin-left:4px;&quot;&gt;+genero_cliente&lt;/p&gt;&lt;p style=&quot;margin:0px;margin-left:4px;&quot;&gt;&lt;br&gt;&lt;/p&gt;" style="verticalAlign=top;align=left;overflow=fill;html=1;whiteSpace=wrap;" vertex="1" parent="1">
          <mxGeometry x="10" y="200" width="160" height="170" as="geometry" />
        </mxCell>
        <mxCell id="xvWXu5NEtejraE3-hPxB-3" value="&lt;p style=&quot;margin:0px;margin-top:4px;text-align:center;&quot;&gt;&lt;b&gt;ADM&lt;/b&gt;&lt;/p&gt;&lt;hr size=&quot;1&quot; style=&quot;border-style:solid;&quot;&gt;&lt;p style=&quot;margin:0px;margin-left:4px;&quot;&gt;+ codigo_adm&lt;/p&gt;&lt;p style=&quot;margin:0px;margin-left:4px;&quot;&gt;+nome_adm&lt;/p&gt;" style="verticalAlign=top;align=left;overflow=fill;html=1;whiteSpace=wrap;" vertex="1" parent="1">
          <mxGeometry x="10" y="380" width="160" height="90" as="geometry" />
        </mxCell>
        <mxCell id="xvWXu5NEtejraE3-hPxB-4" value="&lt;p style=&quot;margin:0px;margin-top:4px;text-align:center;&quot;&gt;&lt;b&gt;STATUS&lt;/b&gt;&lt;/p&gt;&lt;hr size=&quot;1&quot; style=&quot;border-style:solid;&quot;&gt;&lt;p style=&quot;margin:0px;margin-left:4px;&quot;&gt;+ codigo_status&lt;/p&gt;&lt;p style=&quot;margin:0px;margin-left:4px;&quot;&gt;+nome_status&lt;/p&gt;" style="verticalAlign=top;align=left;overflow=fill;html=1;whiteSpace=wrap;" vertex="1" parent="1">
          <mxGeometry x="10" y="495" width="160" height="90" as="geometry" />
        </mxCell>
        <mxCell id="xvWXu5NEtejraE3-hPxB-5" value="&lt;p style=&quot;margin:0px;margin-top:4px;text-align:center;&quot;&gt;&lt;b&gt;ESPECIALIDADE&lt;/b&gt;&lt;/p&gt;&lt;hr size=&quot;1&quot; style=&quot;border-style:solid;&quot;&gt;&lt;p style=&quot;margin:0px;margin-left:4px;&quot;&gt;+ codigo_especialidade&lt;/p&gt;&lt;p style=&quot;margin:0px;margin-left:4px;&quot;&gt;nome_especialidade&lt;/p&gt;" style="verticalAlign=top;align=left;overflow=fill;html=1;whiteSpace=wrap;" vertex="1" parent="1">
          <mxGeometry x="10" y="620" width="160" height="90" as="geometry" />
        </mxCell>
        <mxCell id="xvWXu5NEtejraE3-hPxB-6" value="&lt;p style=&quot;margin:0px;margin-top:4px;text-align:center;&quot;&gt;&lt;b&gt;CODIGO_TIPO_MANUTENÇÃO&lt;/b&gt;&lt;/p&gt;&lt;hr size=&quot;1&quot; style=&quot;border-style:solid;&quot;&gt;&lt;p style=&quot;margin:0px;margin-left:4px;&quot;&gt;+ codigo_tipo_manutenção&lt;/p&gt;&lt;p style=&quot;margin:0px;margin-left:4px;&quot;&gt;+nome_tipo_manutenção&lt;/p&gt;" style="verticalAlign=top;align=left;overflow=fill;html=1;whiteSpace=wrap;" vertex="1" parent="1">
          <mxGeometry x="10" y="731" width="190" height="90" as="geometry" />
        </mxCell>
        <mxCell id="xvWXu5NEtejraE3-hPxB-7" value="&lt;font style=&quot;font-size: 19px;&quot;&gt;LISTA&lt;/font&gt;&lt;div&gt;1- Sistema&lt;/div&gt;&lt;div&gt;2- Cliente&lt;/div&gt;&lt;div&gt;3- relatos&lt;/div&gt;&lt;div&gt;4- Especialista&lt;/div&gt;" style="text;html=1;align=left;verticalAlign=middle;resizable=0;points=[];autosize=1;strokeColor=none;fillColor=none;" vertex="1" parent="1">
          <mxGeometry x="605" y="75" width="100" height="90" as="geometry" />
        </mxCell>
        <mxCell id="xvWXu5NEtejraE3-hPxB-8" value="CLIENTE" style="shape=umlActor;verticalLabelPosition=bottom;verticalAlign=top;html=1;outlineConnect=0;" vertex="1" parent="1">
          <mxGeometry x="470" y="440" width="30" height="60" as="geometry" />
        </mxCell>
        <mxCell id="xvWXu5NEtejraE3-hPxB-9" value="USUARIO" style="shape=umlActor;verticalLabelPosition=bottom;verticalAlign=top;html=1;outlineConnect=0;" vertex="1" parent="1">
          <mxGeometry x="640" y="290" width="30" height="60" as="geometry" />
        </mxCell>
        <mxCell id="xvWXu5NEtejraE3-hPxB-10" style="rounded=0;orthogonalLoop=1;jettySize=auto;html=1;exitX=0.25;exitY=0.1;exitDx=0;exitDy=0;exitPerimeter=0;" edge="1" parent="1" source="xvWXu5NEtejraE3-hPxB-11" target="xvWXu5NEtejraE3-hPxB-9">
          <mxGeometry relative="1" as="geometry">
            <mxPoint x="650" y="450" as="targetPoint" />
            <Array as="points">
              <mxPoint x="658" y="350" />
            </Array>
          </mxGeometry>
        </mxCell>
        <mxCell id="xvWXu5NEtejraE3-hPxB-11" value="ESPECIALISTA" style="shape=umlActor;verticalLabelPosition=bottom;verticalAlign=top;html=1;outlineConnect=0;" vertex="1" parent="1">
          <mxGeometry x="640" y="510" width="30" height="60" as="geometry" />
        </mxCell>
        <mxCell id="xvWXu5NEtejraE3-hPxB-12" style="rounded=0;orthogonalLoop=1;jettySize=auto;html=1;exitX=0.25;exitY=0.1;exitDx=0;exitDy=0;exitPerimeter=0;" edge="1" parent="1" target="xvWXu5NEtejraE3-hPxB-9">
          <mxGeometry relative="1" as="geometry">
            <mxPoint x="805" y="466" as="sourcePoint" />
          </mxGeometry>
        </mxCell>
        <mxCell id="xvWXu5NEtejraE3-hPxB-13" style="rounded=0;orthogonalLoop=1;jettySize=auto;html=1;exitX=0.5;exitY=0;exitDx=0;exitDy=0;exitPerimeter=0;entryX=0;entryY=1;entryDx=0;entryDy=0;entryPerimeter=0;" edge="1" parent="1" source="xvWXu5NEtejraE3-hPxB-8" target="xvWXu5NEtejraE3-hPxB-9">
          <mxGeometry relative="1" as="geometry" />
        </mxCell>
        <mxCell id="xvWXu5NEtejraE3-hPxB-14" value="&lt;p style=&quot;margin:0px;margin-top:4px;text-align:center;&quot;&gt;&lt;b&gt;TESTADOR&lt;/b&gt;&lt;/p&gt;&lt;hr size=&quot;1&quot; style=&quot;border-style:solid;&quot;&gt;&lt;p style=&quot;margin:0px;margin-left:4px;&quot;&gt;+ codigo_testador&lt;/p&gt;&lt;p style=&quot;margin:0px;margin-left:4px;&quot;&gt;+ nome_testador&lt;span style=&quot;white-space: pre;&quot;&gt;&#x9;&lt;/span&gt;&lt;br&gt;&lt;/p&gt;&lt;p style=&quot;margin:0px;margin-left:4px;&quot;&gt;+ codigo_testador&lt;/p&gt;" style="verticalAlign=top;align=left;overflow=fill;html=1;whiteSpace=wrap;" vertex="1" parent="1">
          <mxGeometry x="245" y="320" width="160" height="90" as="geometry" />
        </mxCell>
        <mxCell id="xvWXu5NEtejraE3-hPxB-15" value="&lt;p style=&quot;margin:0px;margin-top:4px;text-align:center;&quot;&gt;&lt;b&gt;RELATOS DE NÃO CONFORMIDADE&lt;/b&gt;&lt;/p&gt;&lt;hr size=&quot;1&quot; style=&quot;border-style:solid;&quot;&gt;&lt;p style=&quot;margin:0px;margin-left:4px;&quot;&gt;+ numero_relato&lt;/p&gt;&lt;p style=&quot;margin:0px;margin-left:4px;&quot;&gt;+titulo_relato&lt;/p&gt;&lt;p style=&quot;margin:0px;margin-left:4px;&quot;&gt;+ descrição_relato&lt;/p&gt;&lt;p style=&quot;margin:0px;margin-left:4px;&quot;&gt;+codigo_status_relato&lt;/p&gt;&lt;p style=&quot;margin:0px;margin-left:4px;&quot;&gt;+codigo_cliente&lt;/p&gt;&lt;p style=&quot;margin:0px;margin-left:4px;&quot;&gt;+codigo_sistema&lt;/p&gt;&lt;p style=&quot;margin:0px;margin-left:4px;&quot;&gt;+data_abertura_relato&lt;/p&gt;&lt;p style=&quot;margin:0px;margin-left:4px;&quot;&gt;+data_encerramento_relato&lt;br&gt;&lt;/p&gt;&lt;p style=&quot;margin:0px;margin-left:4px;&quot;&gt;+codigo_triagem&lt;/p&gt;&lt;p style=&quot;margin:0px;margin-left:4px;&quot;&gt;+codigo_tipo_manutenção&lt;/p&gt;&lt;p style=&quot;margin:0px;margin-left:4px;&quot;&gt;+codigo_testador&lt;/p&gt;&lt;p style=&quot;margin:0px;margin-left:4px;&quot;&gt;+codigo_tipo_teste&lt;/p&gt;&lt;p style=&quot;margin:0px;margin-left:4px;&quot;&gt;+codigo_item_teste&lt;/p&gt;" style="verticalAlign=top;align=left;overflow=fill;html=1;whiteSpace=wrap;" vertex="1" parent="1">
          <mxGeometry x="230" y="10" width="190" height="240" as="geometry" />
        </mxCell>
        <mxCell id="xvWXu5NEtejraE3-hPxB-16" value="&lt;p style=&quot;margin:0px;margin-top:4px;text-align:center;&quot;&gt;&lt;b&gt;TRIAGEM&lt;/b&gt;&lt;/p&gt;&lt;hr size=&quot;1&quot; style=&quot;border-style:solid;&quot;&gt;&lt;p style=&quot;margin:0px;margin-left:4px;&quot;&gt;+ field: Type&lt;/p&gt;&lt;hr size=&quot;1&quot; style=&quot;border-style:solid;&quot;&gt;&lt;p style=&quot;margin:0px;margin-left:4px;&quot;&gt;+ method(): Type&lt;/p&gt;" style="verticalAlign=top;align=left;overflow=fill;html=1;whiteSpace=wrap;" vertex="1" parent="1">
          <mxGeometry x="245" y="420" width="160" height="90" as="geometry" />
        </mxCell>
        <mxCell id="xvWXu5NEtejraE3-hPxB-17" value="&lt;p style=&quot;margin:0px;margin-top:4px;text-align:center;&quot;&gt;&lt;b&gt;TIPO&lt;/b&gt;&lt;/p&gt;&lt;hr size=&quot;1&quot; style=&quot;border-style:solid;&quot;&gt;&lt;p style=&quot;margin:0px;margin-left:4px;&quot;&gt;+ codigo_tipo&lt;/p&gt;&lt;p style=&quot;margin:0px;margin-left:4px;&quot;&gt;+nome_tipo&lt;/p&gt;" style="verticalAlign=top;align=left;overflow=fill;html=1;whiteSpace=wrap;" vertex="1" parent="1">
          <mxGeometry x="240" y="530" width="160" height="90" as="geometry" />
        </mxCell>
        <mxCell id="xvWXu5NEtejraE3-hPxB-18" value="&lt;p style=&quot;margin:0px;margin-top:4px;text-align:center;&quot;&gt;&lt;b&gt;TIPO_SISTEMA&lt;/b&gt;&lt;/p&gt;&lt;hr size=&quot;1&quot; style=&quot;border-style:solid;&quot;&gt;&lt;p style=&quot;margin:0px;margin-left:4px;&quot;&gt;+ codigo_tipo_sistema&lt;/p&gt;&lt;p style=&quot;margin:0px;margin-left:4px;&quot;&gt;+nome_tipo_sistema&lt;/p&gt;" style="verticalAlign=top;align=left;overflow=fill;html=1;whiteSpace=wrap;" vertex="1" parent="1">
          <mxGeometry x="240" y="640" width="160" height="90" as="geometry" />
        </mxCell>
        <mxCell id="xvWXu5NEtejraE3-hPxB-19" value="&lt;p style=&quot;margin:0px;margin-top:4px;text-align:center;&quot;&gt;&lt;b&gt;STATUS_relato&lt;/b&gt;&lt;/p&gt;&lt;hr size=&quot;1&quot; style=&quot;border-style:solid;&quot;&gt;&lt;p style=&quot;margin:0px;margin-left:4px;&quot;&gt;+codigo_status_relato&lt;/p&gt;&lt;p style=&quot;margin:0px;margin-left:4px;&quot;&gt;+nome_status_relato&lt;/p&gt;" style="verticalAlign=top;align=left;overflow=fill;html=1;whiteSpace=wrap;" vertex="1" parent="1">
          <mxGeometry x="240" y="740" width="160" height="90" as="geometry" />
        </mxCell>
        <mxCell id="xvWXu5NEtejraE3-hPxB-20" value="&lt;p style=&quot;margin:0px;margin-top:4px;text-align:center;&quot;&gt;&lt;b&gt;TIPO_DE_TESTE&lt;/b&gt;&lt;/p&gt;&lt;hr size=&quot;1&quot; style=&quot;border-style:solid;&quot;&gt;&lt;p style=&quot;margin:0px;margin-left:4px;&quot;&gt;+ codigo_tipo_teste&lt;/p&gt;&lt;p style=&quot;margin:0px;margin-left:4px;&quot;&gt;+nome_tipo_teste&lt;/p&gt;" style="verticalAlign=top;align=left;overflow=fill;html=1;whiteSpace=wrap;" vertex="1" parent="1">
          <mxGeometry x="445" y="620" width="160" height="90" as="geometry" />
        </mxCell>
        <mxCell id="xvWXu5NEtejraE3-hPxB-21" value="&lt;p style=&quot;margin:0px;margin-top:4px;text-align:center;&quot;&gt;&lt;b&gt;PLANO_DE_TESTE&lt;/b&gt;&lt;/p&gt;&lt;hr size=&quot;1&quot; style=&quot;border-style:solid;&quot;&gt;&lt;p style=&quot;margin:0px;margin-left:4px;&quot;&gt;+ codigo_tipo_teste&lt;/p&gt;&lt;p style=&quot;margin:0px;margin-left:4px;&quot;&gt;+nome_tipo_teste&lt;/p&gt;" style="verticalAlign=top;align=left;overflow=fill;html=1;whiteSpace=wrap;" vertex="1" parent="1">
          <mxGeometry x="460" y="790" width="160" height="90" as="geometry" />
        </mxCell>
      </root>
    </mxGraphModel>
  </diagram>
</mxfile>
